<svg width="26" height="26" viewBox="0 0 26 26" fill="none" xmlns="http://www.w3.org/2000/svg">
<path d="M19.0743 11.3693L13.6882 2.79254C13.61 2.68286 13.5068 2.59344 13.3871 2.53175C13.2674 2.47005 13.1347 2.43787 13 2.43787C12.8653 2.43787 12.7326 2.47005 12.6129 2.53175C12.4932 2.59344 12.39 2.68286 12.3118 2.79254L6.90138 11.4107C6.15035 12.6232 5.7317 14.0119 5.6875 15.4375C5.6875 17.3769 6.45792 19.2368 7.82928 20.6082C9.20064 21.9795 11.0606 22.75 13 22.75C14.9394 22.75 16.7994 21.9795 18.1707 20.6082C19.5421 19.2368 20.3125 17.3769 20.3125 15.4375C20.2659 13.9959 19.8387 12.5923 19.0743 11.3693ZM13 21.125C11.4922 21.1228 10.0469 20.5229 8.9807 19.4568C7.91456 18.3906 7.31465 16.9452 7.3125 15.4375C7.35652 14.3014 7.69775 13.1968 8.30213 12.2338L9.06181 11.0232L17.2469 19.2083C16.7152 19.8105 16.0617 20.2928 15.3295 20.6234C14.5973 20.9539 13.8033 21.1244 13 21.125Z" fill="white"/>
</svg>
