<svg width="22" height="22" viewBox="0 0 22 22" fill="none" xmlns="http://www.w3.org/2000/svg">
<path d="M7.33268 2.75C7.79102 2.75 9.62435 6.875 9.62435 7.33333C9.62435 8.25 8.24935 9.16667 7.79102 10.0833C7.33268 11 8.24935 11.9167 9.16602 12.8333C9.52352 13.1908 10.9993 14.6667 11.916 14.2083C12.8327 13.75 13.7493 12.375 14.666 12.375C15.1243 12.375 19.2493 14.2083 19.2493 14.6667C19.2493 16.5 17.8743 17.875 16.4993 18.3333C15.1243 18.7917 14.2077 18.7917 12.3743 18.3333C10.541 17.875 9.16602 17.4167 6.87435 15.125C4.58268 12.8333 4.12435 11.4583 3.66602 9.625C3.20768 7.79167 3.20768 6.875 3.66602 5.5C4.12435 4.125 5.49935 2.75 7.33268 2.75Z" fill="#FDFBF6" stroke="#EBEBEB" stroke-width="2" stroke-linecap="round" stroke-linejoin="round"/>
</svg>
