<svg width="26" height="26" viewBox="0 0 26 26" fill="none" xmlns="http://www.w3.org/2000/svg">
<path fill-rule="evenodd" clip-rule="evenodd" d="M18.9577 17.875C18.9575 18.8825 18.7019 19.8735 18.2147 20.7554C17.7275 21.6373 17.0246 22.3813 16.1717 22.9177C15.3189 23.4542 14.3439 23.7656 13.338 23.8228C12.3321 23.8801 11.3281 23.6814 10.4199 23.2452C9.51166 22.809 8.72887 22.1496 8.14471 21.3287C7.56055 20.5078 7.1941 19.5522 7.07961 18.5512C6.96512 17.5502 7.10634 16.5365 7.49006 15.6049C7.87379 14.6733 8.48748 13.8542 9.27377 13.2242C9.55977 12.9956 9.74935 12.6598 9.74935 12.2925V5.41663C9.74935 4.55467 10.0918 3.72802 10.7013 3.11853C11.3107 2.50904 12.1374 2.16663 12.9994 2.16663C13.8613 2.16663 14.688 2.50904 15.2974 3.11853C15.9069 3.72802 16.2494 4.55467 16.2494 5.41663V12.2936C16.2494 12.6598 16.4389 12.9956 16.7249 13.2253C17.4223 13.783 17.9851 14.4906 18.3716 15.2955C18.7581 16.1004 18.9584 16.982 18.9577 17.875ZM12.9994 4.60413C13.2148 4.60413 13.4215 4.68973 13.5739 4.8421C13.7262 4.99448 13.8119 5.20114 13.8119 5.41663V14.495C13.8119 14.9684 14.1336 15.3703 14.5247 15.6368C15.003 15.9628 15.3643 16.4336 15.5556 16.98C15.7469 17.5264 15.758 18.1197 15.5874 18.6729C15.4168 19.226 15.0735 19.71 14.6077 20.0538C14.1419 20.3976 13.5783 20.5831 12.9994 20.5831C12.4204 20.5831 11.8568 20.3976 11.391 20.0538C10.9252 19.71 10.5819 19.226 10.4113 18.6729C10.2407 18.1197 10.2518 17.5264 10.4431 16.98C10.6344 16.4336 10.9957 15.9628 11.474 15.6368C11.864 15.3703 12.1869 14.9684 12.1869 14.495V5.41663C12.1869 5.20114 12.2725 4.99448 12.4248 4.8421C12.5772 4.68973 12.7839 4.60413 12.9994 4.60413Z" fill="white"/>
</svg>
