<svg width="140" height="52" viewBox="0 0 140 52" fill="none" xmlns="http://www.w3.org/2000/svg">
<path d="M28.8626 8.35756C26.4224 5.1706 23.6185 2.19513 19.1542 2.19513C10.9569 2.19513 6.79948 8.25393 6.79948 18.0199C6.79948 25.6458 10.6417 33.0623 18.3765 33.0623C20.755 33.0651 23.0818 32.3634 25.0665 31.0445C27.0513 29.7256 28.6062 27.848 29.5373 25.6458L31.7695 26.7433C28.7071 33.1151 23.5722 35.7269 17.1301 35.7269C7.63182 35.7248 0 27.7352 0 18.28C0 7.46936 7.89034 0 17.7543 0C23.0489 0 27.8243 2.8211 30.7311 6.99988L28.8626 8.35756Z" fill="#64747B"/>
<path d="M60.5815 34.7858H54.091L50.5179 25.9588H38.9346L35.5611 34.7858H32.5996L46.3058 0H46.4088L60.5815 34.7858ZM44.6958 11.333L39.8153 23.7636H49.6267L44.6958 11.333Z" fill="#64747B"/>
<path d="M64.6289 34.7858V0.94104H79.1632C85.288 0.94104 88.714 5.48567 88.714 10.9164C88.714 16.087 84.9769 18.3329 79.9409 18.9525L88.8695 34.7773H81.9124L72.7231 17.4447H73.1435C78.7491 17.4447 82.3916 15.2517 82.3916 10.1847C82.3916 6.42463 80.5756 2.61171 74.4046 2.61171H70.9786V34.7858H64.6289Z" fill="#64747B"/>
<path d="M93.7422 34.7858V0.94104H113.624V3.13405H100.086V16.1906H112.856V18.3857H100.086V32.5928H113.842V34.7858H93.7422Z" fill="#64747B"/>
<path d="M120.125 34.7858V0.94104H126.458V32.1212H139.954V34.7858H120.125Z" fill="#64747B"/>
<path d="M49.2009 39.36H0.0175781V42.3207H49.2009V39.36Z" fill="#64747B"/>
<path d="M140 39.36H115.408V42.3207H140V39.36Z" fill="#64747B"/>
<path d="M66.1245 47.8275L68.9998 40.3243H70.0108L65.4287 52H65.393L63.2491 46.2668L60.9665 52H60.9308L56.6094 40.3243H58.7701L61.5845 47.8804L62.7174 44.9705L61.0359 40.318H63.2659L66.1245 47.8275Z" fill="#E62614"/>
<path d="M75.7415 40.0072C79.0161 40.0072 81.3513 42.6549 81.3513 46.0026C81.3513 49.3502 79.0161 51.9979 75.7415 51.9979C72.4668 51.9979 70.1484 49.3502 70.1484 46.0026C70.1484 42.6549 72.4836 40.0072 75.7415 40.0072ZM75.7415 51.262C78.4591 51.262 79.0687 48.2125 79.0687 46.0026C79.0687 43.7926 78.4591 40.7431 75.7415 40.7431C73.0238 40.7431 72.431 43.7926 72.431 46.0026C72.431 48.2125 73.0238 51.2641 75.7415 51.2641V51.262Z" fill="#E62614"/>
<path d="M82.9199 51.6849V40.3243H87.7983C89.8539 40.3243 91.0036 41.8491 91.0036 43.672C91.0036 45.4082 89.7425 46.1611 88.061 46.3726L91.0583 51.6849H88.7231L85.6397 45.865H85.7784C87.6701 45.865 88.8808 45.1291 88.8808 43.4288C88.8808 42.16 88.2712 40.8911 86.1967 40.8911H85.047V51.6849H82.9199Z" fill="#E62614"/>
<path d="M92.6914 51.6849V40.3243H94.8164V51.6849H92.6914ZM99.2954 40.3243H100.514L96.7501 45.1883L100.889 51.6849H98.4988L94.8752 45.975L99.2954 40.3243Z" fill="#E62614"/>
<path d="M102.315 49.6505C102.907 50.598 103.534 51.1055 104.65 51.1055C105.625 51.1055 106.672 50.3167 106.672 49.1409C106.672 45.844 101.375 47.4047 101.375 43.338C101.375 41.515 102.89 40.0072 104.999 40.0072C106.392 40.0072 107.805 40.7791 108.397 42.0416L107.664 42.5069C107.229 41.5954 106.548 40.8933 105.352 40.8933C104.185 40.8933 103.504 41.7878 103.504 42.8748C103.504 45.5394 108.801 44.4165 108.801 48.5191C108.801 50.6064 106.989 51.9895 105.089 51.9895C103.557 51.9895 102.319 51.5327 101.535 50.2194L102.315 49.6505Z" fill="#E62614"/>
</svg>
