<svg width="82" height="82" viewBox="0 0 82 82" fill="none" xmlns="http://www.w3.org/2000/svg">
<circle cx="41" cy="41" r="41" fill="#EEE5E5"/>
<path fill-rule="evenodd" clip-rule="evenodd" d="M63.6745 39.6683C63.6745 50.7326 53.3321 59.7019 40.5759 59.7019C38.2882 59.7049 36.0099 59.4105 33.7994 58.8261C32.1132 59.6733 28.2413 61.2989 21.7275 62.3578C21.15 62.4493 20.7112 61.8541 20.9393 61.3217C21.9614 58.9292 22.8853 55.741 23.1625 52.8332C19.6255 49.3131 17.4774 44.7053 17.4774 39.6683C17.4774 28.6041 27.8197 19.6348 40.5759 19.6348C53.3321 19.6348 63.6745 28.6041 63.6745 39.6683ZM38.2488 36.1367C38.5 36.4916 38.7194 36.8808 38.9042 37.2843C40.14 39.9974 40.0389 44.0872 36.1843 47.8907C35.9491 48.118 35.635 48.2475 35.3065 48.2529C34.978 48.2582 34.6599 48.1389 34.4173 47.9193C34.299 47.8131 34.2039 47.684 34.1378 47.54C34.0717 47.3959 34.0361 47.24 34.0331 47.0818C34.0302 46.9236 34.0599 46.7665 34.1205 46.6201C34.1811 46.4738 34.2713 46.3413 34.3855 46.2307C35.5953 45.0402 36.3258 43.8525 36.7214 42.7392C35.9447 43.2114 35.0236 43.4833 34.0362 43.4833C31.2643 43.4833 29.0267 41.3483 29.0267 38.7153C29.0267 36.0823 31.2672 33.9445 34.0333 33.9445C34.8157 33.9445 35.5578 34.1162 36.2161 34.4195L36.2392 34.431C36.7271 34.6313 37.1833 34.9519 37.5933 35.3582C37.8388 35.5958 38.0582 35.8562 38.2488 36.1367ZM49.2379 42.7392C48.4612 43.2114 47.5402 43.4833 46.5527 43.4833C43.7866 43.4833 41.5432 41.3483 41.5432 38.7153C41.5432 36.0823 43.7867 33.9445 46.5498 33.9445C47.3323 33.9445 48.0743 34.1162 48.7326 34.4195L48.7557 34.431C49.2466 34.6313 49.6999 34.9519 50.1099 35.3582C50.3553 35.5958 50.5747 35.8562 50.7653 36.1367C51.0165 36.4916 51.2388 36.8808 51.4236 37.2843C52.6594 39.9974 52.5555 44.0872 48.7038 47.8907C48.4683 48.1188 48.1537 48.2489 47.8245 48.2542C47.4954 48.2595 47.1766 48.1397 46.9338 47.9193C46.8155 47.8131 46.7204 47.684 46.6544 47.54C46.5883 47.3959 46.5527 47.24 46.5497 47.0818C46.5467 46.9236 46.5764 46.7665 46.6371 46.6201C46.6977 46.4738 46.7878 46.3413 46.9021 46.2307C48.1147 45.0402 48.8424 43.8525 49.2408 42.7392H49.2379Z" fill="#090909" fill-opacity="0.972549"/>
</svg>
